<svg id="Layer_1" data-name="Layer 1" xmlns="http://www.w3.org/2000/svg" viewBox="0 0 255.13 255.13"><defs><style>.cls-1{fill:#1a1918;}.cls-2{fill:#fff;}</style></defs><title>ansible</title><path class="cls-1" d="M255.13,127.57A127.57,127.57,0,1,1,127.57,0,127.56,127.56,0,0,1,255.13,127.57"/><path class="cls-2" d="M129.71,77.93l33,81.47-49.87-39.27Zm58.65,100.24L137.58,56a8.21,8.21,0,0,0-7.87-5.39A8.48,8.48,0,0,0,121.63,56L65.9,190H85L107,134.75l65.83,53.19c2.65,2.14,4.56,3.1,7,3.1a9.1,9.1,0,0,0,9.32-9.11,12.13,12.13,0,0,0-.87-3.76Z"/></svg>