<?xml version="1.0" encoding="utf-8"?>
<!-- Generator: Adobe Illustrator 23.0.2, SVG Export Plug-In . SVG Version: 6.00 Build 0)  -->
<svg version="1.1" id="Layer_1" xmlns="http://www.w3.org/2000/svg" xmlns:xlink="http://www.w3.org/1999/xlink" x="0px" y="0px"
	 viewBox="0 0 223.42 223.42" style="enable-background:new 0 0 223.42 223.42;" xml:space="preserve">
<style type="text/css">
	.st0{fill:#FFFFFF;}
</style>
<g>
	<g>
		<path class="st0" d="M110.71,223.87c-36.8,0-73.6,0-110.4,0c0-74.62,0-149.24,0-223.85c74.62,0,149.24,0,223.85,0
			c0,74.62,0,149.24,0,223.85c-36.95,0-73.89,0-110.84,0c0.78-0.37,1.55-0.76,2.34-1.12c33.42-15.44,66.83-30.91,100.28-46.27
			c3.51-1.61,5-3.98,4.99-7.78c-0.05-38.03-0.05-76.07,0-114.1c0-3.64-1.4-5.93-4.77-7.46c-33.49-15.12-66.94-30.31-100.37-45.55
			c-2.59-1.18-4.89-1.22-7.49-0.03C86.18,11.67,64.02,21.71,41.88,31.77c-1.39,0.63-2.82,1.19-4.12,1.97
			c-2.36,1.42-3.31,4.22-2.48,6.84c0.8,2.5,3.14,4.24,5.83,4c1.33-0.12,2.68-0.62,3.92-1.18c21.7-9.81,43.39-19.65,65.06-29.54
			c1.38-0.63,2.46-0.65,3.85-0.01c27.62,12.58,55.26,25.11,82.9,37.66c1.02,0.46,2.03,0.97,3.31,1.58
			c-0.94,0.45-1.58,0.78-2.24,1.07c-27.92,12.27-55.85,24.51-83.75,36.83c-1.54,0.68-2.75,0.68-4.29,0
			c-32.42-14.3-64.86-28.54-97.3-42.79c-5.46-2.4-9.43,0.19-9.43,6.2c-0.01,38.18,0.01,76.36-0.03,114.54
			c0,3.62,1.42,5.95,4.79,7.47c11.06,4.98,22.04,10.13,33.04,15.22C64.19,202.35,87.45,213.11,110.71,223.87z"/>
		<path d="M110.71,223.87c-23.26-10.76-46.51-21.52-69.77-32.27c-11.01-5.09-21.99-10.24-33.04-15.22
			c-3.37-1.52-4.79-3.84-4.79-7.47c0.04-38.18,0.02-76.36,0.03-114.54c0-6.01,3.98-8.6,9.43-6.2c32.44,14.25,64.89,28.49,97.3,42.79
			c1.54,0.68,2.75,0.68,4.29,0c27.9-12.31,55.83-24.56,83.75-36.83c0.66-0.29,1.29-0.62,2.24-1.07c-1.28-0.61-2.29-1.11-3.31-1.58
			c-27.64-12.54-55.28-25.07-82.9-37.66c-1.39-0.63-2.47-0.62-3.85,0.01c-21.67,9.89-43.36,19.72-65.06,29.54
			c-1.24,0.56-2.58,1.06-3.92,1.18c-2.68,0.24-5.03-1.5-5.83-4c-0.84-2.62,0.11-5.42,2.48-6.84c1.3-0.78,2.74-1.34,4.12-1.97
			c22.15-10.06,44.3-20.1,66.43-30.21c2.59-1.19,4.9-1.15,7.49,0.03c33.44,15.23,66.89,30.43,100.37,45.55
			c3.38,1.53,4.78,3.82,4.77,7.46c-0.05,38.03-0.05,76.07,0,114.1c0.01,3.81-1.48,6.17-4.99,7.78
			c-33.45,15.37-66.86,30.83-100.28,46.27c-0.78,0.36-1.56,0.75-2.34,1.12C112.45,223.87,111.58,223.87,110.71,223.87z
			 M118.01,208.43c1.06-0.44,1.73-0.7,2.37-0.99c28.88-13.33,57.74-26.67,86.64-39.95c1.47-0.68,1.97-1.45,1.97-3.08
			c-0.05-33.23-0.04-66.46-0.04-99.7c0-0.69-0.06-1.39-0.11-2.28c-1,0.41-1.79,0.72-2.58,1.07c-30.11,13.23-60.23,26.44-90.32,39.72
			c-2.75,1.21-5.17,1.18-7.91-0.03C77.95,89.9,47.83,76.69,17.72,63.46c-0.78-0.34-1.57-0.66-2.51-1.06
			c-0.05,0.81-0.11,1.37-0.11,1.93c0,33.45,0.01,66.9-0.05,100.35c0,1.68,0.77,2.22,2.04,2.81c28.89,13.31,57.76,26.64,86.64,39.97
			c0.64,0.29,1.3,0.54,2.31,0.96c0-1.16,0-1.99,0-2.83c0-25.23,0-50.47,0.01-75.7c0-1.16,0.03-2.34,0.29-3.46
			c0.71-3.09,3.69-4.93,6.8-4.32c3.25,0.64,4.88,3.01,4.88,7.19c0.01,25.38,0,50.76,0,76.14
			C118.01,206.3,118.01,207.17,118.01,208.43z"/>
		<path class="st0" d="M118.01,208.43c0-1.26,0-2.12,0-2.99c0-25.38,0-50.76,0-76.14c0-4.18-1.63-6.56-4.88-7.19
			c-3.11-0.61-6.09,1.23-6.8,4.32c-0.26,1.12-0.29,2.3-0.29,3.46c-0.02,25.23-0.01,50.47-0.01,75.7c0,0.84,0,1.68,0,2.83
			c-1.01-0.42-1.67-0.67-2.31-0.96c-28.88-13.33-57.75-26.66-86.64-39.97c-1.27-0.58-2.04-1.12-2.04-2.81
			c0.07-33.45,0.05-66.9,0.05-100.35c0-0.56,0.06-1.12,0.11-1.93c0.95,0.4,1.74,0.72,2.51,1.06c30.11,13.23,60.23,26.44,90.32,39.72
			c2.74,1.21,5.16,1.24,7.91,0.03c30.09-13.29,60.21-26.5,90.32-39.72c0.78-0.34,1.58-0.66,2.58-1.07c0.04,0.9,0.11,1.59,0.11,2.28
			c0,33.23-0.01,66.46,0.04,99.7c0,1.63-0.5,2.4-1.97,3.08c-28.9,13.28-57.76,26.63-86.64,39.95
			C119.74,207.73,119.08,207.98,118.01,208.43z"/>
	</g>
</g>
</svg>
