<svg id="Layer_1" data-name="Layer 1" xmlns="http://www.w3.org/2000/svg" viewBox="0 0 522.65 144.77"><defs><style>.cls-1{fill:#fff;}.cls-2{font-size:85px;font-family:ArialMT, Arial;}</style></defs><title>Untitled-1</title><path class="cls-1" d="M90.11,169.69H18.71V24.92H163.49V169.69H91.81c.5-.24,1-.49,1.51-.72q32.42-15,64.85-29.93a5,5,0,0,0,3.23-5q0-36.9,0-73.79a4.73,4.73,0,0,0-3.09-4.83Q125.84,40.72,93.4,25.94a5.36,5.36,0,0,0-4.84,0q-21.47,9.81-43,19.53a25.19,25.19,0,0,0-2.67,1.28,3.74,3.74,0,0,0-1.6,4.42,3.63,3.63,0,0,0,3.77,2.58A8.2,8.2,0,0,0,47.63,53q21-9.53,42.07-19.11a2.72,2.72,0,0,1,2.5,0Q119,46.06,145.81,58.21c.66.3,1.31.63,2.14,1-.61.29-1,.51-1.45.69Q119.42,71.83,92.34,83.74a3.07,3.07,0,0,1-2.77,0Q58.13,69.86,26.64,56.06c-3.53-1.55-6.1.13-6.1,4q0,37.05,0,74.08a4.76,4.76,0,0,0,3.1,4.83c7.15,3.22,14.25,6.55,21.37,9.84Z" transform="translate(-18.71 -24.92)"/><path d="M90.11,169.69,45,148.82c-7.12-3.29-14.22-6.62-21.37-9.84a4.76,4.76,0,0,1-3.1-4.83q0-37,0-74.08c0-3.88,2.57-5.56,6.1-4Q58.11,69.89,89.57,83.74a3.07,3.07,0,0,0,2.77,0Q119.42,71.8,146.5,59.92c.43-.18.84-.4,1.45-.69-.83-.39-1.48-.72-2.14-1Q119,46,92.2,33.85a2.72,2.72,0,0,0-2.5,0q-21,9.6-42.07,19.11a8.2,8.2,0,0,1-2.53.76,3.63,3.63,0,0,1-3.77-2.58,3.74,3.74,0,0,1,1.6-4.42,25.19,25.19,0,0,1,2.67-1.28q21.48-9.75,43-19.53a5.36,5.36,0,0,1,4.84,0q32.43,14.77,64.91,29.45a4.73,4.73,0,0,1,3.09,4.83q0,36.89,0,73.79a5,5,0,0,1-3.23,5Q125.73,154,93.32,169c-.51.23-1,.48-1.51.72Zm4.73-10c.68-.28,1.11-.45,1.53-.64q28-12.93,56-25.84a1.84,1.84,0,0,0,1.27-2q0-32.23,0-64.47c0-.45,0-.9-.06-1.48l-1.67.69Q122.69,78.81,93.5,91.66a5.83,5.83,0,0,1-5.12,0Q59.21,78.76,30,66c-.5-.22-1-.42-1.62-.68,0,.52-.08.88-.08,1.25q0,32.45,0,64.9c0,1.08.5,1.43,1.32,1.81l56,25.85c.41.19.84.35,1.49.62v-1.83q0-24.48,0-49a9.79,9.79,0,0,1,.19-2.23,3.72,3.72,0,0,1,4.4-2.8c2.1.41,3.15,2,3.15,4.65q0,24.63,0,49.24Z" transform="translate(-18.71 -24.92)"/><path class="cls-1" d="M94.84,159.7v-1.93q0-24.61,0-49.24c0-2.7-1-4.24-3.15-4.65a3.72,3.72,0,0,0-4.4,2.8,9.79,9.79,0,0,0-.19,2.23q0,24.48,0,49v1.83c-.65-.27-1.08-.43-1.49-.62l-56-25.85c-.82-.38-1.32-.73-1.32-1.81q.06-32.46,0-64.9c0-.37,0-.73.08-1.25.61.26,1.12.46,1.62.68Q59.19,78.79,88.38,91.64a5.83,5.83,0,0,0,5.12,0Q122.68,78.77,151.91,66l1.67-.69c0,.58.06,1,.06,1.48q0,32.24,0,64.47a1.84,1.84,0,0,1-1.27,2q-28,12.89-56,25.84C96,159.25,95.52,159.42,94.84,159.7Z" transform="translate(-18.71 -24.92)"/><text class="cls-2" transform="translate(163.52 103.31)">Cloudbox</text></svg>