<?xml version="1.0" encoding="utf-8"?>
<!-- Generator: Adobe Illustrator 23.0.2, SVG Export Plug-In . SVG Version: 6.00 Build 0)  -->
<svg version="1.1" id="Layer_1" xmlns="http://www.w3.org/2000/svg" xmlns:xlink="http://www.w3.org/1999/xlink" x="0px" y="0px"
	 viewBox="0 0 24 24" style="enable-background:new 0 0 24 24;" xml:space="preserve">
<title></title>
<g id="Docker">
	<path d="M23.8,11.1c-0.7-0.5-1.6-0.7-2.4-0.8c-0.1,0-0.3,0-0.4,0c-0.3-0.9-0.9-1.7-1.6-2.3c-0.2-0.1-0.5-0.1-0.6,0.1
		c-0.7,0.9-1,2.1-0.7,3.3c0,0.1,0,0.3-0.1,0.4c-0.1,0.1-0.2,0.2-0.3,0.1H17V9.5C17,9.2,16.8,9,16.5,9H14V3.5C14,3.2,13.8,3,13.5,3
		h-3C10.2,3,10,3.2,10,3.5V6H4.5C4.2,6,4,6.2,4,6.5V9H1.5C1.2,9,1,9.2,1,9.5V12H0.5C0.2,12,0,12.2,0,12.5C0,20.2,5.6,21,8,21
		c5.1,0,9.8-2.7,12.4-7.1c1.4-0.2,2.7-1,3.5-2.2C24.1,11.5,24,11.2,23.8,11.1z M16,12h-2v-2h2V12z M5,12v-2h2v2H5z M8,12v-2h2v2H8z
		 M13,7v2h-2V7H13z M11,12v-2h2v2H11z M11,4h2v2h-2V4z M10,9H8V7h2V9z M5,7h2v2H5V7z M2,10h2v2H2V10z M5,17c-0.6,0-1-0.4-1-1
		c0-0.6,0.4-1,1-1s1,0.4,1,1C6,16.6,5.6,17,5,17z"/>
</g>
</svg>
