<?xml version="1.0" encoding="iso-8859-1"?>
<!-- Generator: Adobe Illustrator 19.0.0, SVG Export Plug-In . SVG Version: 6.00 Build 0)  -->
<svg version="1.1" id="Capa_1" xmlns="http://www.w3.org/2000/svg" xmlns:xlink="http://www.w3.org/1999/xlink" x="0px" y="0px"
	 viewBox="0 0 522.462 522.462" style="enable-background:new 0 0 522.462 522.462;" xml:space="preserve">
<g>
	<path d="M511.577,217.692h-62.151c-4.354-17.198-9.883-36.289-16.936-50.766l44.235-44.235c2.046-2.046,3.178-4.833,3.178-7.685
		c0-2.895-1.154-5.682-3.178-7.706l-61.585-61.542c-4.245-4.267-11.146-4.267-15.391,0l-44.257,44.213
		c-14.455-7.053-33.546-12.583-50.722-16.936V10.885C304.769,4.876,299.893,0,293.885,0h-65.308
		c-6.008,0-10.885,4.876-10.885,10.885v62.151c-17.198,4.354-36.289,9.883-50.744,16.936l-44.257-44.213
		c-4.245-4.267-11.146-4.267-15.391,0l-61.585,61.542c-4.245,4.223-4.245,11.146,0,15.391l44.257,44.257
		c-7.01,14.433-12.583,33.525-16.958,50.744H10.885C4.876,217.692,0,222.569,0,228.577v65.308c0,6.008,4.876,10.885,10.885,10.885
		h62.129c4.376,17.219,9.927,36.311,16.958,50.766l-44.257,44.257c-2.046,2.025-3.178,4.789-3.178,7.685
		c0,2.895,1.154,5.66,3.178,7.706l61.585,61.563c4.093,4.093,11.32,4.093,15.391,0l44.257-44.235
		c14.433,7.01,33.546,12.561,50.766,16.936v62.129c0,6.008,4.876,10.885,10.885,10.885h65.308c6.008,0,10.885-4.876,10.885-10.885
		v-62.129c17.219-4.376,36.311-9.927,50.744-16.936l44.279,44.235c4.245,4.245,11.146,4.245,15.391,0l61.563-61.563
		c4.245-4.245,4.245-11.146,0-15.369l-44.235-44.257c7.031-14.455,12.583-33.546,16.936-50.766h62.108
		c6.008,0,10.885-4.876,10.885-10.885v-65.308C522.462,222.569,517.585,217.692,511.577,217.692z M261.231,348.308
		c-48.023,0-87.077-39.076-87.077-87.077s39.054-87.077,87.077-87.077s87.077,39.076,87.077,87.077S309.254,348.308,261.231,348.308
		z"/>
</g>
<g>
</g>
<g>
</g>
<g>
</g>
<g>
</g>
<g>
</g>
<g>
</g>
<g>
</g>
<g>
</g>
<g>
</g>
<g>
</g>
<g>
</g>
<g>
</g>
<g>
</g>
<g>
</g>
<g>
</g>
</svg>
