<?xml version="1.0" encoding="iso-8859-1"?>
<!-- Generator: Adobe Illustrator 16.0.0, SVG Export Plug-In . SVG Version: 6.00 Build 0)  -->
<!DOCTYPE svg PUBLIC "-//W3C//DTD SVG 1.1//EN" "http://www.w3.org/Graphics/SVG/1.1/DTD/svg11.dtd">
<svg version="1.1" id="Capa_1" xmlns="http://www.w3.org/2000/svg" xmlns:xlink="http://www.w3.org/1999/xlink" x="0px" y="0px"
	 width="342.52px" height="342.52px" viewBox="0 0 342.52 342.52" style="enable-background:new 0 0 342.52 342.52;"
	 xml:space="preserve">
<g>
	<g>
		<path d="M171.254,110.681c-14.045,0-25.47,11.418-25.47,25.476v21.773h50.933v-21.773
			C196.724,122.104,185.29,110.681,171.254,110.681z"/>
		<path d="M171.26,0C76.825,0,0.006,76.825,0.006,171.257c0,94.438,76.813,171.263,171.254,171.263
			c94.416,0,171.254-76.825,171.254-171.263C342.514,76.825,265.683,0,171.26,0z M226.225,239.291c0,4.119-3.339,7.446-7.458,7.446
			h-95.032c-4.113,0-7.446-3.327-7.446-7.446v-73.91c0-4.119,3.333-7.458,7.446-7.458h7.152V136.15
			c0-22.266,18.113-40.361,40.367-40.361c22.251,0,40.355,18.095,40.355,40.361v21.773h7.151c4.119,0,7.458,3.338,7.458,7.458v73.91
			H226.225z"/>
	</g>
</g>
<g>
</g>
<g>
</g>
<g>
</g>
<g>
</g>
<g>
</g>
<g>
</g>
<g>
</g>
<g>
</g>
<g>
</g>
<g>
</g>
<g>
</g>
<g>
</g>
<g>
</g>
<g>
</g>
<g>
</g>
</svg>
