<svg id="Layer_1" data-name="Layer 1" xmlns="http://www.w3.org/2000/svg" viewBox="0 0 473.25 471.29"><title>cb_circular_icon</title><path d="M0,235.48C0,105.53,106.65-.43,236.92,0,368,.44,473.51,105.79,473.25,235.93c-.26,130-106.2,235.39-236.54,235.36C106.21,471.26,0,365.41,0,235.48Zm369.87-89.25c-1.78.94-2.46,1.36-3.19,1.67q-63.56,27.18-127.15,54.21a9.17,9.17,0,0,1-6.44-.39q-73.28-31.07-146.46-62.35c-9.09-3.87-14.79-.15-14.79,9.57q0,83.73-.08,167.46c0,5.79,2.2,9.18,7.47,11.53q75.66,33.75,151.16,67.82a13.92,13.92,0,0,0,12.39.16q75.54-34,151.17-67.81c5.39-2.41,7.8-6,7.78-12q-.17-83.47,0-166.95c0-5.71-2.12-9.34-7.41-11.66Q318.47,104.2,242.73,70.66a13.85,13.85,0,0,0-12,0Q189,89.24,147.2,107.57c-7.15,3.16-14.34,6.23-21.43,9.52-5.15,2.4-7,6.85-5.09,11.4,2,4.71,6.8,6.65,12.07,4.81,1.25-.44,2.44-1.07,3.66-1.6q48.18-21.21,96.33-42.5a8.72,8.72,0,0,1,7.91,0c26.29,11.72,52.63,23.29,79,34.91Z"/><path d="M90.22,160.14l42.62,18.19c32.44,13.84,64.9,27.61,97.27,41.59a15.62,15.62,0,0,0,13.36,0q67.64-29,135.37-57.81c1.21-.52,2.43-1,4.34-1.79.1,2.11.25,3.84.25,5.57q0,71.24,0,142.45c0,2.95-.11,5.13-3.55,6.66q-65.43,29.1-130.7,58.54c-.87.39-1.8.65-3.39,1.23v-5.8q0-55,0-110c0-4.91-1.13-8.93-6.24-10.73a8.8,8.8,0,0,0-11.8,7.25,48,48,0,0,0-.12,5.5V374.75c-1.94-.76-3.42-1.27-4.84-1.9Q158.43,344,94,315.05c-2.28-1-4.19-1.71-4.18-5.15.16-49.15.11-98.3.13-147.45C90,162,90.06,161.46,90.22,160.14Z"/></svg>