<svg xmlns="http://www.w3.org/2000/svg" viewBox="0 0 512 512"><path d="M472.178 34.62H39.822C17.829 34.62 0 52.449 0 74.442v45.263a5.69 5.69 0 005.689 5.689h500.622a5.688 5.688 0 005.689-5.689V74.442c0-21.993-17.829-39.822-39.822-39.822zM71.805 92.844c-7.09 0-12.836-5.747-12.836-12.836s5.747-12.836 12.836-12.836 12.836 5.747 12.836 12.836c.001 7.089-5.746 12.836-12.836 12.836zm41.152 0c-7.09 0-12.836-5.747-12.836-12.836s5.747-12.836 12.836-12.836 12.836 5.747 12.836 12.836c.001 7.089-5.747 12.836-12.836 12.836zm41.152 0c-7.089 0-12.836-5.747-12.836-12.836s5.747-12.836 12.836-12.836c7.09 0 12.836 5.747 12.836 12.836s-5.747 12.836-12.836 12.836zm352.202 55.306H5.689A5.69 5.69 0 000 153.839v283.719c0 21.993 17.829 39.822 39.822 39.822h432.356c21.993 0 39.822-17.829 39.822-39.822V153.839a5.688 5.688 0 00-5.689-5.689zM178.203 285.633l-19.857 61.278c-2.951 9.114-15.237 10.75-20.423 2.601l-15.253-23.976-15.254 23.978c-5.163 8.11-17.465 6.533-20.423-2.601l-19.855-61.278c-4.635-14.298 17.006-21.336 21.646-7.014l12.405 38.286 11.88-18.673c4.462-7.013 14.73-7.026 19.2 0l11.88 18.673 12.406-38.287c4.644-14.329 26.282-7.282 21.648 7.013zm133.33 0l-19.855 61.278c-2.951 9.112-15.236 10.751-20.423 2.601L256 325.538l-15.253 23.976c-5.163 8.11-17.465 6.533-20.423-2.601l-19.855-61.278c-4.635-14.298 17.006-21.336 21.646-7.014l12.405 38.286 11.88-18.673c4.462-7.013 14.73-7.026 19.2 0l11.88 18.673 12.405-38.286c4.634-14.303 26.29-7.308 21.648 7.012zm133.329 0l-19.855 61.278c-2.957 9.128-15.258 10.717-20.423 2.601l-15.253-23.976-15.253 23.976c-5.186 8.148-17.471 6.514-20.423-2.601l-19.857-61.278c-4.635-14.3 17.006-21.336 21.646-7.014l12.406 38.287 11.88-18.673c4.462-7.013 14.73-7.026 19.2 0l11.88 18.673 12.405-38.286c4.634-14.302 26.289-7.307 21.647 7.013z"/></svg>