<svg data-name="Layer 1" xmlns="http://www.w3.org/2000/svg" viewBox="0 0 217.83 223.19"><path d="M107.6 223.18l-69.77-32.27c-11-5.09-22-10.24-33-15.22a7.35 7.35 0 01-4.78-7.47V53.69c0-6 4-8.6 9.43-6.2q48.64 21.36 97.28 42.82a4.77 4.77 0 004.29 0q41.84-18.49 83.75-36.86c.65-.29 1.29-.62 2.23-1.07-1.28-.61-2.29-1.11-3.31-1.58q-41.46-18.81-82.9-37.66a4.16 4.16 0 00-3.85 0Q74.46 27.98 41.89 42.7a12.84 12.84 0 01-3.92 1.18 5.62 5.62 0 01-5.82-4 5.79 5.79 0 012.47-6.83 40.11 40.11 0 014.13-2Q71.98 15.99 105.19.87a8.33 8.33 0 017.49 0q50.15 22.85 100.37 45.55c3.38 1.52 4.78 3.82 4.78 7.45q-.08 57.06 0 114.1c0 3.81-1.48 6.17-5 7.79q-50.19 23-100.29 46.27c-.78.36-1.55.75-2.33 1.12zm7.3-15.44c1.07-.45 1.73-.7 2.37-1l86.64-40a2.87 2.87 0 002-3.08q-.08-49.85-.05-99.69c0-.69-.06-1.39-.1-2.28-1 .41-1.79.72-2.58 1.06q-45.16 19.84-90.32 39.73a9.05 9.05 0 01-7.9 0Q59.8 82.57 14.61 62.77c-.78-.34-1.57-.66-2.52-1.05 0 .8-.11 1.37-.11 1.93q0 50.18-.05 100.35c0 1.68.77 2.22 2 2.8q43.32 20 86.63 40c.64.3 1.3.54 2.31 1v-78.53a15.41 15.41 0 01.29-3.46 5.73 5.73 0 016.8-4.32c3.25.64 4.88 3 4.88 7.19v79.13z"/></svg>