<svg version="1.1" id="Layer_1" xmlns="http://www.w3.org/2000/svg" x="0" y="0" viewBox="0 0 223.42 223.42" xml:space="preserve"><style>.st0{fill:#fff}</style><path class="st0" d="M110.71 223.87H.31V.02h223.85v223.85H113.32c.78-.37 1.55-.76 2.34-1.12 33.42-15.44 66.83-30.91 100.28-46.27 3.51-1.61 5-3.98 4.99-7.78-.05-38.03-.05-76.07 0-114.1 0-3.64-1.4-5.93-4.77-7.46A30205.68 30205.68 0 01115.79 1.59C113.2.41 110.9.37 108.3 1.56 86.18 11.67 64.02 21.71 41.88 31.77c-1.39.63-2.82 1.19-4.12 1.97-2.36 1.42-3.31 4.22-2.48 6.84.8 2.5 3.14 4.24 5.83 4 1.33-.12 2.68-.62 3.92-1.18 21.7-9.81 43.39-19.65 65.06-29.54 1.38-.63 2.46-.65 3.85-.01 27.62 12.58 55.26 25.11 82.9 37.66 1.02.46 2.03.97 3.31 1.58-.94.45-1.58.78-2.24 1.07-27.92 12.27-55.85 24.51-83.75 36.83-1.54.68-2.75.68-4.29 0-32.42-14.3-64.86-28.54-97.3-42.79-5.46-2.4-9.43.19-9.43 6.2-.01 38.18.01 76.36-.03 114.54 0 3.62 1.42 5.95 4.79 7.47 11.06 4.98 22.04 10.13 33.04 15.22 23.25 10.72 46.51 21.48 69.77 32.24z"/><path d="M110.71 223.87c-23.26-10.76-46.51-21.52-69.77-32.27-11.01-5.09-21.99-10.24-33.04-15.22-3.37-1.52-4.79-3.84-4.79-7.47.04-38.18.02-76.36.03-114.54 0-6.01 3.98-8.6 9.43-6.2 32.44 14.25 64.89 28.49 97.3 42.79 1.54.68 2.75.68 4.29 0 27.9-12.31 55.83-24.56 83.75-36.83.66-.29 1.29-.62 2.24-1.07-1.28-.61-2.29-1.11-3.31-1.58-27.64-12.54-55.28-25.07-82.9-37.66-1.39-.63-2.47-.62-3.85.01-21.67 9.89-43.36 19.72-65.06 29.54-1.24.56-2.58 1.06-3.92 1.18-2.68.24-5.03-1.5-5.83-4-.84-2.62.11-5.42 2.48-6.84 1.3-.78 2.74-1.34 4.12-1.97 22.15-10.06 44.3-20.1 66.43-30.21 2.59-1.19 4.9-1.15 7.49.03 33.44 15.23 66.89 30.43 100.37 45.55 3.38 1.53 4.78 3.82 4.77 7.46-.05 38.03-.05 76.07 0 114.1.01 3.81-1.48 6.17-4.99 7.78-33.45 15.37-66.86 30.83-100.28 46.27-.78.36-1.56.75-2.34 1.12-.88.03-1.75.03-2.62.03zm7.3-15.44c1.06-.44 1.73-.7 2.37-.99 28.88-13.33 57.74-26.67 86.64-39.95 1.47-.68 1.97-1.45 1.97-3.08-.05-33.23-.04-66.46-.04-99.7 0-.69-.06-1.39-.11-2.28-1 .41-1.79.72-2.58 1.07-30.11 13.23-60.23 26.44-90.32 39.72-2.75 1.21-5.17 1.18-7.91-.03-30.08-13.29-60.2-26.5-90.31-39.73-.78-.34-1.57-.66-2.51-1.06-.05.81-.11 1.37-.11 1.93 0 33.45.01 66.9-.05 100.35 0 1.68.77 2.22 2.04 2.81 28.89 13.31 57.76 26.64 86.64 39.97.64.29 1.3.54 2.31.96v-2.83c0-25.23 0-50.47.01-75.7 0-1.16.03-2.34.29-3.46.71-3.09 3.69-4.93 6.8-4.32 3.25.64 4.88 3.01 4.88 7.19.01 25.38 0 50.76 0 76.14-.01.86-.01 1.73-.01 2.99z"/><path class="st0" d="M118.01 208.43V129.3c0-4.18-1.63-6.56-4.88-7.19-3.11-.61-6.09 1.23-6.8 4.32-.26 1.12-.29 2.3-.29 3.46-.02 25.23-.01 50.47-.01 75.7v2.83c-1.01-.42-1.67-.67-2.31-.96-28.88-13.33-57.75-26.66-86.64-39.97-1.27-.58-2.04-1.12-2.04-2.81.07-33.45.05-66.9.05-100.35 0-.56.06-1.12.11-1.93.95.4 1.74.72 2.51 1.06 30.11 13.23 60.23 26.44 90.32 39.72 2.74 1.21 5.16 1.24 7.91.03 30.09-13.29 60.21-26.5 90.32-39.72.78-.34 1.58-.66 2.58-1.07.04.9.11 1.59.11 2.28 0 33.23-.01 66.46.04 99.7 0 1.63-.5 2.4-1.97 3.08-28.9 13.28-57.76 26.63-86.64 39.95-.64.3-1.3.55-2.37 1z"/></svg>