<svg id="Layer_1" data-name="Layer 1" xmlns="http://www.w3.org/2000/svg" viewBox="0 0 522.65 144.77"><defs><style>.cls-1{fill:#fff}</style></defs><path class="cls-1" d="M90.11 169.69h-71.4V24.92h144.78v144.77H91.81c.5-.24 1-.49 1.51-.72q32.42-15 64.85-29.93a5 5 0 003.23-5V60.25a4.73 4.73 0 00-3.09-4.83q-32.47-14.7-64.91-29.48a5.36 5.36 0 00-4.84 0q-21.47 9.81-43 19.53a25.19 25.19 0 00-2.67 1.28 3.74 3.74 0 00-1.6 4.42 3.63 3.63 0 003.77 2.58 8.2 8.2 0 002.57-.75q21-9.53 42.07-19.11a2.72 2.72 0 012.5 0q26.8 12.17 53.61 24.32c.66.3 1.31.63 2.14 1-.61.29-1 .51-1.45.69q-27.08 11.93-54.16 23.84a3.07 3.07 0 01-2.77 0Q58.13 69.86 26.64 56.06c-3.53-1.55-6.1.13-6.1 4v74.08a4.76 4.76 0 003.1 4.83c7.15 3.22 14.25 6.55 21.37 9.84z" transform="translate(-18.71 -24.92)"/><path d="M90.11 169.69L45 148.82c-7.12-3.29-14.22-6.62-21.37-9.84a4.76 4.76 0 01-3.1-4.83V60.07c0-3.88 2.57-5.56 6.1-4q31.48 13.82 62.94 27.67a3.07 3.07 0 002.77 0q27.08-11.94 54.16-23.82c.43-.18.84-.4 1.45-.69-.83-.39-1.48-.72-2.14-1Q119 46 92.2 33.85a2.72 2.72 0 00-2.5 0q-21 9.6-42.07 19.11a8.2 8.2 0 01-2.53.76 3.63 3.63 0 01-3.77-2.58 3.74 3.74 0 011.6-4.42 25.19 25.19 0 012.67-1.28q21.48-9.75 43-19.53a5.36 5.36 0 014.84 0q32.43 14.77 64.91 29.45a4.73 4.73 0 013.09 4.83v73.79a5 5 0 01-3.23 5Q125.73 154 93.32 169c-.51.23-1 .48-1.51.72zm4.73-10c.68-.28 1.11-.45 1.53-.64q28-12.93 56-25.84a1.84 1.84 0 001.27-2V66.74c0-.45 0-.9-.06-1.48l-1.67.69Q122.69 78.81 93.5 91.66a5.83 5.83 0 01-5.12 0Q59.21 78.76 30 66c-.5-.22-1-.42-1.62-.68 0 .52-.08.88-.08 1.25v64.9c0 1.08.5 1.43 1.32 1.81l56 25.85c.41.19.84.35 1.49.62v-50.83a9.79 9.79 0 01.19-2.23 3.72 3.72 0 014.4-2.8c2.1.41 3.15 2 3.15 4.65v49.24z" transform="translate(-18.71 -24.92)"/><path class="cls-1" d="M94.84 159.7v-51.17c0-2.7-1-4.24-3.15-4.65a3.72 3.72 0 00-4.4 2.8 9.79 9.79 0 00-.19 2.23v50.83c-.65-.27-1.08-.43-1.49-.62l-56-25.85c-.82-.38-1.32-.73-1.32-1.81q.06-32.46 0-64.9c0-.37 0-.73.08-1.25.61.26 1.12.46 1.62.68q29.2 12.8 58.39 25.65a5.83 5.83 0 005.12 0Q122.68 78.77 151.91 66l1.67-.69c0 .58.06 1 .06 1.48v64.47a1.84 1.84 0 01-1.27 2q-28 12.89-56 25.84c-.37.15-.85.32-1.53.6z" transform="translate(-18.71 -24.92)"/><text transform="translate(163.52 103.31)" font-size="85" font-family="ArialMT,Arial">Cloudbox</text></svg>