<svg xmlns="http://www.w3.org/2000/svg" viewBox="0 0 612 612"><path d="M503.676 349.452c0-5.712-2.244-9.792-6.729-12.24l-66.708-31.824c7.752-4.896 13.974-11.832 18.666-20.808 4.689-8.976 7.038-19.176 7.038-30.6 0-15.912-4.794-29.58-14.385-41.004-9.588-11.424-21.315-17.136-35.188-17.136-4.896 0-9.486.816-13.771 2.448-4.281 1.632-8.262 3.672-11.934 6.12 4.488 12.24 6.732 24.684 6.732 37.332 0 19.992-5.307 38.148-15.912 54.468 2.04 2.04 3.978 3.876 5.812 5.508a38.76 38.76 0 005.814 4.284l43.452 20.196c6.117 3.264 11.016 7.854 14.688 13.77s5.508 12.546 5.508 19.893v56.303h45.9c3.264 0 5.916-1.326 7.956-3.979 2.04-2.649 3.06-5.812 3.06-9.483l.001-53.248zm-77.724 10.404c0-7.347-2.856-12.24-8.568-14.688l-58.14-28.152-24.48-11.625c5.307-3.264 10.101-7.446 14.385-12.546 4.281-5.1 7.854-10.914 10.71-17.442 2.039-4.896 3.771-10.2 5.199-15.912 1.431-5.712 2.145-11.628 2.145-17.748 0-3.264-.204-6.426-.612-9.486s-1.02-6.222-1.836-9.486c-3.672-15.504-10.914-28.152-21.726-37.944-10.813-9.792-23.358-14.688-37.638-14.688s-26.724 4.794-37.332 14.382-17.748 21.726-21.42 36.414c-2.04 7.344-3.06 14.28-3.06 20.808 0 12.24 2.652 24.072 7.956 35.496 6.12 12.24 14.484 21.828 25.092 28.764l-23.256 11.016-59.976 27.54c-6.12 2.856-9.18 7.956-9.18 15.302v66.095c0 4.488 1.326 8.262 3.978 11.322s6.018 4.59 10.098 4.59h214.2c3.672 0 6.834-1.53 9.483-4.59 2.652-3.063 3.979-6.834 3.979-11.322v-9.792l-.001-56.308zm-261.936 0c0-7.347 1.836-13.977 5.508-19.893s8.568-10.506 14.688-13.77l45.288-20.809c4.08-2.448 7.344-5.304 9.792-8.568-5.304-7.752-9.384-16.32-12.24-25.704s-4.284-19.176-4.284-29.376c0-6.936.714-13.566 2.142-19.89s3.162-12.342 5.202-18.054c-7.344-5.304-15.504-7.956-24.48-7.956-13.872 0-25.602 5.712-35.19 17.136-9.588 11.424-14.382 25.092-14.382 41.004 0 11.424 2.448 21.726 7.344 30.906s11.424 16.218 19.584 21.114l-67.932 31.212c-4.488 2.04-6.732 6.12-6.732 12.24v53.244c0 3.672 1.02 6.834 3.06 9.483 2.04 2.652 4.692 3.979 7.956 3.979h44.676v-56.298zM306 0c42.024 0 81.702 8.058 119.034 24.174s69.768 37.944 97.308 65.484 49.368 59.976 65.484 97.308S612 263.976 612 306c0 28.152-3.672 55.284-11.016 81.396-7.347 26.109-17.646 50.487-30.906 73.134a305.087 305.087 0 01-47.736 61.812 304.924 304.924 0 01-61.812 47.736c-22.646 13.26-47.022 23.562-73.136 30.906C361.284 608.328 334.152 612 306 612s-55.284-3.672-81.396-11.016c-26.112-7.347-50.49-17.646-73.134-30.906s-43.248-29.172-61.812-47.736a305.032 305.032 0 01-47.736-61.812c-13.26-22.646-23.562-47.022-30.906-73.135C3.672 361.284 0 334.152 0 306s3.672-55.284 11.016-81.396 17.646-50.49 30.906-73.134 29.172-43.248 47.736-61.812 39.168-34.476 61.812-47.736 47.022-23.562 73.134-30.906S277.848 0 306 0z" fill="#010002"/></svg>