<svg xmlns="http://www.w3.org/2000/svg" viewBox="0 0 24 24"><path d="M23.8 11.1c-.7-.5-1.6-.7-2.4-.8H21c-.3-.9-.9-1.7-1.6-2.3-.2-.1-.5-.1-.6.1-.7.9-1 2.1-.7 3.3 0 .1 0 .3-.1.4-.1.1-.2.2-.3.1H17V9.5c0-.3-.2-.5-.5-.5H14V3.5c0-.3-.2-.5-.5-.5h-3c-.3 0-.5.2-.5.5V6H4.5c-.3 0-.5.2-.5.5V9H1.5c-.3 0-.5.2-.5.5V12H.5c-.3 0-.5.2-.5.5C0 20.2 5.6 21 8 21c5.1 0 9.8-2.7 12.4-7.1 1.4-.2 2.7-1 3.5-2.2.2-.2.1-.5-.1-.6zM16 12h-2v-2h2v2zM5 12v-2h2v2H5zm3 0v-2h2v2H8zm5-5v2h-2V7h2zm-2 5v-2h2v2h-2zm0-8h2v2h-2V4zm-1 5H8V7h2v2zM5 7h2v2H5V7zm-3 3h2v2H2v-2zm3 7c-.6 0-1-.4-1-1s.4-1 1-1 1 .4 1 1-.4 1-1 1z"/></svg>