<svg xmlns="http://www.w3.org/2000/svg" width="342.52" height="342.52" viewBox="0 0 342.52 342.52"><path d="M171.254 110.681c-14.045 0-25.47 11.418-25.47 25.476v21.773h50.933v-21.773c.007-14.053-11.427-25.476-25.463-25.476z"/><path d="M171.26 0C76.825 0 .006 76.825.006 171.257c0 94.438 76.813 171.263 171.254 171.263 94.416 0 171.254-76.825 171.254-171.263C342.514 76.825 265.683 0 171.26 0zm54.965 239.291c0 4.119-3.339 7.446-7.458 7.446h-95.032a7.441 7.441 0 01-7.446-7.446v-73.91c0-4.119 3.333-7.458 7.446-7.458h7.152V136.15c0-22.266 18.113-40.361 40.367-40.361 22.251 0 40.355 18.095 40.355 40.361v21.773h7.151a7.457 7.457 0 017.458 7.458v73.91h.007z"/></svg>